<?xml version="1.0" encoding="utf-8"?>
<!-- Generator: Adobe Illustrator 24.3.0, SVG Export Plug-In . SVG Version: 6.00 Build 0)  -->
<svg version="1.1" id="Layer_1" xmlns="http://www.w3.org/2000/svg" xmlns:xlink="http://www.w3.org/1999/xlink" x="0px" y="0px"
	 viewBox="0 0 640 480" style="enable-background:new 0 0 640 480;" xml:space="preserve">
<style type="text/css">
	.st0{fill:#FFFFFF;stroke:#2E3192;stroke-width:3;stroke-miterlimit:10;}
	.st1{fill:none;stroke:#2E3192;stroke-width:3;stroke-miterlimit:10;}
	.st2{fill:none;stroke:#2E3192;stroke-width:2;stroke-miterlimit:10;}
	.st3{fill:none;}
	.st4{fill:#1B1464;}
	.st5{font-family:'MyriadPro-Regular';}
	.st6{font-size:36px;}
	.st7{font-family:'MyriadPro-Semibold';}
	.st8{font-size:15px;}
</style>
<g>
	<g>
		<path class="st0" d="M228.26,159.57h-38.42c-17.15,0-31.05,13.9-31.05,31.05v119.54c0,17.15,13.9,31.05,31.05,31.05h38.42
			c17.15,0,31.05-13.9,31.05-31.05V190.62C259.32,173.47,245.41,159.57,228.26,159.57z"/>
		<line class="st1" x1="158.79" y1="244.07" x2="259.32" y2="244.07"/>
		<line class="st1" x1="209.05" y1="159.57" x2="209.05" y2="244.07"/>
		<path class="st1" d="M209.05,223.13L209.05,223.13c-8.57,0-15.53-6.95-15.53-15.53v-11.58c0-8.57,6.95-15.53,15.53-15.53h0
			c8.57,0,15.53,6.95,15.53,15.53v11.58C224.58,216.18,217.63,223.13,209.05,223.13z"/>
	</g>
	<line class="st2" x1="314.47" y1="159.57" x2="314.47" y2="341.21"/>
	<rect x="331.32" y="185.42" class="st3" width="152.11" height="181.05"/>
	<text transform="matrix(1 0 0 1 331.3153 210.9802)"><tspan x="0" y="0" class="st4 st5 st6">Faith </tspan><tspan x="0" y="43.2" class="st4 st5 st6">Seasons </tspan><tspan x="0" y="86.4" class="st4 st5 st6">Design</tspan></text>
	<rect x="156.58" y="354.89" class="st3" width="321.05" height="31.05"/>
	<text transform="matrix(1 0 0 1 156.579 365.5439)" class="st4 st7 st8">helping you bring your dream brand into a reality</text>
</g>
</svg>
